<svg xmlns="http://www.w3.org/2000/svg" width="35" height="35" viewBox="0 0 100 100" enable-background="new 0 0 100 100"><path d="M50.003 95c-34.606 0-42.292-4.75-43.823-6.205l-.526-.5.048-.724c.173-2.601.688-8.969 1.742-11.916 1.352-3.789 3.015-5.489 5.096-6.876 1.016-.679 4.791-2.11 10.432-4.216 5.235-1.956 11.086-4.139 13.18-5.33 1.77-1.008 3.913-5.855 3.323-7.518-.164-.462-.93-1.301-1.257-1.659l-.008-.009-.043-.045c-2.222-2.429-5.166-7.106-6.377-11.634-1.654-6.183-2.925-18.703 2.803-26.42 3.258-4.387 8.328-6.721 15.07-6.936l.176-.012.505.011c6.74.215 11.809 2.549 15.066 6.934 5.728 7.712 4.46 20.236 2.806 26.42-1.214 4.532-4.165 9.216-6.394 11.65-1.105 1.209-1.259 1.549-1.279 1.623-.044 1.551 1.418 6.516 3.311 7.594 2.098 1.192 7.946 3.378 13.107 5.304 5.679 2.119 9.48 3.559 10.503 4.242 2.082 1.389 3.746 3.09 5.097 6.878 1.047 2.93 1.561 9.252 1.735 11.833l.048.739-.544.502c-1.594 1.47-9.469 6.27-43.797 6.27zm-41.153-8.067c2.036 1.232 10.728 4.972 41.153 4.972 30.361 0 39.031-3.728 41.147-5.048-.283-3.781-.805-8.211-1.502-10.16-1.074-3.01-2.243-4.239-3.899-5.344-.802-.535-6.258-2.571-9.868-3.919-5.528-2.063-11.244-4.197-13.554-5.513-3.304-1.878-4.937-8.189-4.877-10.357.036-1.197.674-2.09 2.09-3.639 1.984-2.167 4.609-6.332 5.688-10.361 1.508-5.647 2.723-17.01-2.302-23.775-2.666-3.589-6.932-5.502-12.682-5.686l-.367-.012-.074.011c-5.788.185-10.057 2.098-12.723 5.689-5.026 6.769-3.81 18.129-2.3 23.774 1.077 4.027 3.694 8.185 5.671 10.346l.008.009.044.045c.937 1.026 1.58 1.838 1.89 2.716 1.172 3.301-1.853 9.615-4.711 11.241-2.309 1.313-8.026 3.447-13.555 5.512-3.657 1.366-9.075 3.39-9.869 3.92-1.656 1.103-2.825 2.332-3.899 5.342-.702 1.961-1.227 6.424-1.509 10.237z"/><path stroke="#fff" stroke-width="3.095" stroke-linecap="round" stroke-miterlimit="10" d="M39.324 48.971"/></svg>