<svg xmlns="http://www.w3.org/2000/svg" viewBox="231 0 543 560" enable-background="new 231 0 543 560" stroke="#a9a9a9" fill="#a9a9a9"><path stroke="#a9a9a9" stroke-width="13" stroke-miterlimit="10" d="M531.4 54.7c-32.7 0-64.3 6.6-93.9 19.7-4.5 2-6.6 7.3-4.6 11.8 2 4.5 7.3 6.6 11.8 4.6 27.4-12.1 56.5-18.2 86.7-18.2 118.6 0 215.2 96.5 215.2 215.1s-96.5 215.2-215.2 215.2c-118.6 0-215.1-96.5-215.1-215.2 0-24.2 4.2-47.8 12-70.3l81.1 39.5 3.4 1.2h2c4.8 0 9.3-2.7 12.8-7.6 4.7-6.6 7.8-17.7 4.8-26.5l-36.2-105c-4.6-13.3-20-20.8-33.3-16.2l-105 36.2c-10.4 3.6-18.2 16.1-18.8 25-.4 6 2.3 10.9 7.2 13.3l65.9 32.1c-8.9 25.1-13.7 51.3-13.7 78.2 0 128.5 104.6 233.1 233.1 233.1s233.1-104.5 233.1-233.1c-.2-128.4-104.7-232.9-233.3-232.9zm-267.7 101.3l105-36.2c4.3-1.5 9.1.9 10.5 5.1l36.2 105c.8 2.2-.4 6.5-1.7 9.1l-82.9-40.3c-1-1.4-2.2-2.6-3.9-3.3-1.3-.5-2.7-.6-4-.5l-65.3-31.9c1.2-2.6 3.9-6.2 6.1-7z"/></svg>