<?xml version="1.0" encoding="utf-8"?>
<!-- Generator: Adobe Illustrator 17.1.0, SVG Export Plug-In . SVG Version: 6.00 Build 0)  -->
<!DOCTYPE svg PUBLIC "-//W3C//DTD SVG 1.1//EN" "http://www.w3.org/Graphics/SVG/1.1/DTD/svg11.dtd">
<svg version="1.1" id="Layer_1" xmlns="http://www.w3.org/2000/svg" xmlns:xlink="http://www.w3.org/1999/xlink" x="0px" y="0px"
	 viewBox="231 0 543 560" enable-background="new 231 0 543 560" xml:space="preserve" style="fill:#a9a9a9;stroke:#a9a9a9;" stroke="#a9a9a9">
<path stroke="#a9a9a9" stroke-width="13" stroke-miterlimit="10" d="M531.4,54.7c-32.7,0-64.3,6.6-93.9,19.7
	c-4.5,2-6.6,7.3-4.6,11.8c2,4.5,7.3,6.6,11.8,4.6c27.4-12.1,56.5-18.2,86.7-18.2c118.6,0,215.2,96.5,215.2,215.1
	c0,118.6-96.5,215.2-215.2,215.2c-118.6,0-215.1-96.5-215.1-215.2c0-24.2,4.2-47.8,12-70.3l81.1,39.5l3.4,1.2h2
	c4.8,0,9.3-2.7,12.8-7.6c4.7-6.6,7.8-17.7,4.8-26.5l-36.2-105c-4.6-13.3-20-20.8-33.3-16.2l-105,36.2c-10.4,3.6-18.2,16.1-18.8,25
	c-0.4,6,2.3,10.9,7.2,13.3l65.9,32.1c-8.9,25.1-13.7,51.3-13.7,78.2c0,128.5,104.6,233.1,233.1,233.1
	c128.5,0,233.1-104.5,233.1-233.1C764.5,159.2,660,54.7,531.4,54.7z M263.7,156l105-36.2c4.3-1.5,9.1,0.9,10.5,5.1l36.2,105
	c0.8,2.2-0.4,6.5-1.7,9.1l-82.9-40.3c-1-1.4-2.2-2.6-3.9-3.3c-1.3-0.5-2.7-0.6-4-0.5L257.6,163C258.8,160.4,261.5,156.8,263.7,156z"
	/>
</svg>
