<svg xmlns="http://www.w3.org/2000/svg" xmlns:xlink="http://www.w3.org/1999/xlink" version="1.1" id="Capa_1" x="0px" y="0px" width="35px" height="35px" viewBox="0 0 100 100" enable-background="new 0 0 100 100" xml:space="preserve">
<g>
	<g>
		<path d="M50.003,95C15.397,95,7.711,90.25,6.18,88.795l-0.526-0.5l0.048-0.724c0.173-2.601,0.688-8.969,1.742-11.916    c1.352-3.789,3.015-5.489,5.096-6.876c1.016-0.679,4.791-2.11,10.432-4.216c5.235-1.956,11.086-4.139,13.18-5.33    c1.77-1.008,3.913-5.855,3.323-7.518c-0.164-0.462-0.93-1.301-1.257-1.659c-0.002-0.003-0.005-0.006-0.008-0.009    c-0.014-0.015-0.029-0.03-0.043-0.045c-2.222-2.429-5.166-7.106-6.377-11.634c-1.654-6.183-2.925-18.703,2.803-26.42    c3.258-4.387,8.328-6.721,15.07-6.936L49.839,5l0.505,0.011c6.74,0.215,11.809,2.549,15.066,6.934    c5.728,7.712,4.46,20.236,2.806,26.42c-1.214,4.532-4.165,9.216-6.394,11.65c-1.105,1.209-1.259,1.549-1.279,1.623    c-0.044,1.551,1.418,6.516,3.311,7.594c2.098,1.192,7.946,3.378,13.107,5.304c5.679,2.119,9.48,3.559,10.503,4.242    c2.082,1.389,3.746,3.09,5.097,6.878c1.047,2.93,1.561,9.252,1.735,11.833l0.048,0.739l-0.544,0.502    C92.206,90.2,84.331,95,50.003,95z M8.85,86.933c2.036,1.232,10.728,4.972,41.153,4.972c30.361,0,39.031-3.728,41.147-5.048    c-0.283-3.781-0.805-8.211-1.502-10.16c-1.074-3.01-2.243-4.239-3.899-5.344c-0.802-0.535-6.258-2.571-9.868-3.919    c-5.528-2.063-11.244-4.197-13.554-5.513c-3.304-1.878-4.937-8.189-4.877-10.357c0.036-1.197,0.674-2.09,2.09-3.639    c1.984-2.167,4.609-6.332,5.688-10.361c1.508-5.647,2.723-17.01-2.302-23.775c-2.666-3.589-6.932-5.502-12.682-5.686l-0.367-0.012    l-0.074,0.011c-5.788,0.185-10.057,2.098-12.723,5.689C32.054,20.56,33.27,31.92,34.78,37.565    c1.077,4.027,3.694,8.185,5.671,10.346c0.003,0.003,0.005,0.006,0.008,0.009c0.015,0.015,0.029,0.03,0.044,0.045    c0.937,1.026,1.58,1.838,1.89,2.716c1.172,3.301-1.853,9.615-4.711,11.241c-2.309,1.313-8.026,3.447-13.555,5.512    c-3.657,1.366-9.075,3.39-9.869,3.92c-1.656,1.103-2.825,2.332-3.899,5.342C9.657,78.657,9.132,83.12,8.85,86.933z"/>
	</g>
	<g>
		<path stroke="#FFFFFF" stroke-width="3.095" stroke-linecap="round" stroke-miterlimit="10" d="M39.324,48.971" fill="#000000"/>
	</g>
</g>
</svg>