<?xml version="1.0" encoding="utf-8"?>
<!-- Generator: Adobe Illustrator 17.1.0, SVG Export Plug-In . SVG Version: 6.00 Build 0)  -->
<!DOCTYPE svg PUBLIC "-//W3C//DTD SVG 1.1//EN" "http://www.w3.org/Graphics/SVG/1.1/DTD/svg11.dtd">
<svg version="1.1" id="Layer_1" xmlns="http://www.w3.org/2000/svg" xmlns:xlink="http://www.w3.org/1999/xlink" x="0px" y="0px"
	 viewBox="20.7 21.2 58.3 58.2" enable-background="new 20.7 21.2 58.3 58.2" xml:space="preserve" style="fill:#a9a9a9;stroke:#a9a9a9;">
<path d="M42.2,61.1c4.4,0,8.4-1.6,11.7-4.1l19,19c0.4,0.4,1,0.7,1.6,0.7c0.6,0,1.1-0.2,1.6-0.7c0.9-0.9,0.9-2.2,0-3.1l-18.9-19
	c2.6-3.2,4-7.2,4-11.7c0-10.4-8.4-18.9-18.9-18.9s-18.9,8.4-18.9,18.9S31.9,61.1,42.2,61.1z M42.2,27.8c8,0,14.4,6.4,14.4,14.4
	s-6.4,14.4-14.4,14.4s-14.4-6.4-14.4-14.4S34.3,27.8,42.2,27.8z"/>
</svg>
